<svg width="50" height="50" viewBox="0 0 50 50" fill="none" xmlns="http://www.w3.org/2000/svg">
<g id="Icons">
<g id="Social-Media-Collection">
<g id="Behance">
<path id="Fill-198" fill-rule="evenodd" clip-rule="evenodd" d="M20.5672 25.6885H16.0547V29.8322H20.3594C21.0063 29.8135 22.2016 29.6104 22.2016 27.8182C22.2016 25.6666 20.5672 25.6885 20.5672 25.6885Z" fill="#1D63F8"/>
<path id="Fill-199" fill-rule="evenodd" clip-rule="evenodd" d="M32.1217 23.2993C29.7264 23.2993 29.3936 25.6899 29.3936 25.6899H34.4857C34.4857 25.6899 34.517 23.2993 32.1217 23.2993Z" fill="#1D63F8"/>
<path id="Fill-200" fill-rule="evenodd" clip-rule="evenodd" d="M20.5672 19.8389H19.9859H16.0547V23.2982H20.2875C21.0187 23.2982 21.6641 23.0639 21.6641 21.4514C21.6641 19.8389 20.5672 19.8389 20.5672 19.8389Z" fill="#1D63F8"/>
<g id="Fill-311">
<path id="Fill-201" fill-rule="evenodd" clip-rule="evenodd" d="M37.4578 27.7578H29.4234C29.4234 30.6375 32.1531 30.4563 32.1531 30.4563C34.7297 30.4563 34.6391 28.7891 34.6391 28.7891H37.3672C37.3672 33.2141 32.0609 32.9109 32.0609 32.9109C25.6953 32.9109 26.1047 26.9844 26.1047 26.9844C26.1047 26.9844 26.0984 21.0281 32.0609 21.0281C38.3359 21.0281 37.4578 27.7578 37.4578 27.7578ZM25.4922 28.0109C25.4922 32.7422 20.5672 32.5875 20.5672 32.5875H16.0547H15.9219H12.5V17.0828H15.9219H16.0547H20.5672C23.0187 17.0828 24.9547 18.4375 24.9547 21.2109C24.9547 23.9859 22.5891 24.1609 22.5891 24.1609C25.7078 24.1609 25.4922 28.0109 25.4922 28.0109ZM28.7266 17.9969H35.1234V19.9062H28.7266V17.9969ZM25 0C11.1922 0 0 11.1922 0 25C0 38.8063 11.1922 50 25 50C38.8078 50 50 38.8063 50 25C50 11.1922 38.8078 0 25 0Z" fill="#1D63F8"/>
</g>
</g>
</g>
</g>
</svg>
