<svg width="50" height="50" viewBox="0 0 50 50" fill="none" xmlns="http://www.w3.org/2000/svg">
<g id="Group 351">
<g id="Layer 2">
<g id="01.facebook">
<path id="background" d="M25 50C38.8071 50 50 38.8071 50 25C50 11.1929 38.8071 0 25 0C11.1929 0 0 11.1929 0 25C0 38.8071 11.1929 50 25 50Z" fill="#334C8C"/>
<path id="icon" d="M31.3353 22.6349L30.9209 26.1151C30.903 26.2768 30.8259 26.4261 30.7044 26.5342C30.5829 26.6424 30.4256 26.7016 30.263 26.7007H26.6446V37.0296C26.6454 37.1529 26.5975 37.2716 26.5112 37.3597C26.425 37.4478 26.3073 37.4983 26.184 37.5H22.4965C22.4352 37.4991 22.3746 37.4862 22.3183 37.4619C22.2619 37.4377 22.2109 37.4025 22.1681 37.3585C22.1254 37.3146 22.0917 37.2626 22.069 37.2056C22.0464 37.1486 22.0351 37.0877 22.036 37.0263L22.0557 26.7007H19.3156C19.1411 26.7007 18.9738 26.6313 18.8504 26.508C18.727 26.3846 18.6577 26.2172 18.6577 26.0428V22.5625C18.6577 22.388 18.727 22.2207 18.8504 22.0973C18.9738 21.9739 19.1411 21.9046 19.3156 21.9046H22.0393V18.5296C22.0393 14.625 24.3617 12.5 27.763 12.5H30.5492C30.7236 12.5 30.891 12.5693 31.0144 12.6927C31.1377 12.8161 31.2071 12.9834 31.2071 13.1579V16.0888C31.2071 16.2633 31.1377 16.4306 31.0144 16.554C30.891 16.6774 30.7236 16.7467 30.5492 16.7467H28.8419C26.9932 16.7763 26.6446 17.6612 26.6446 18.9836V21.8947H30.6939C30.7863 21.8963 30.8773 21.9173 30.961 21.9564C31.0447 21.9955 31.1193 22.0518 31.1798 22.1217C31.2403 22.1915 31.2854 22.2733 31.3122 22.3617C31.339 22.4501 31.3469 22.5432 31.3353 22.6349Z" fill="white"/>
</g>
</g>
</g>
</svg>
