<svg width="50" height="50" viewBox="0 0 50 50" fill="none" xmlns="http://www.w3.org/2000/svg">
<g id="Layer_2">
<g id="Group">
<g id="Group_2">
<path id="Vector" d="M25.0001 12.4727C23.7019 12.4727 21.4055 16.5102 21.0483 23.2137H28.9519C28.5948 16.5102 26.2983 12.4727 25.0001 12.4727Z" fill="#056D87"/>
</g>
<g id="Group_3">
<path id="Vector_2" d="M17.473 23.2144C17.6409 19.7555 18.2945 16.3984 19.4177 13.8037C15.8177 15.6055 13.2105 19.0841 12.6177 23.2144H17.473Z" fill="#056D87"/>
</g>
<g id="Group_4">
<path id="Vector_3" d="M21.0483 26.7852C21.4055 33.4887 23.7019 37.5262 25.0001 37.5262C26.2983 37.5262 28.5948 33.4887 28.9519 26.7852H21.0483Z" fill="#056D87"/>
</g>
<g id="Group_5">
<path id="Vector_4" d="M32.5268 23.2144H37.384C36.7911 19.0841 34.1822 15.6055 30.584 13.8037C31.7054 16.3984 32.359 19.7555 32.5268 23.2144Z" fill="#056D87"/>
</g>
<g id="Group_6">
<path id="Vector_5" d="M25 0C11.1929 0 0 11.1929 0 25C0 38.8071 11.1929 50 25 50C38.8071 50 50 38.8071 50 25C50 11.1929 38.8071 0 25 0ZM25 41.0982C16.1232 41.0982 8.90179 33.8768 8.90179 25C8.90179 16.1232 16.1232 8.90179 25 8.90179C33.8768 8.90179 41.0982 16.1232 41.0982 25C41.0982 33.8768 33.8768 41.0982 25 41.0982Z" fill="#056D87"/>
</g>
<g id="Group_7">
<path id="Vector_6" d="M32.5267 26.7852C32.3588 30.2441 31.7052 33.6012 30.582 36.1959C34.182 34.3941 36.7892 30.9155 37.382 26.7852H32.5267Z" fill="#056D87"/>
</g>
<g id="Group_8">
<path id="Vector_7" d="M17.4734 26.7852H12.6162C13.2091 30.9155 15.818 34.3941 19.4162 36.1959C18.2948 33.6012 17.6412 30.2441 17.4734 26.7852Z" fill="#056D87"/>
</g>
</g>
</g>
</svg>
