<svg width="50" height="50" viewBox="0 0 50 50" fill="none" xmlns="http://www.w3.org/2000/svg">
<path d="M25 50C38.8071 50 50 38.8071 50 25C50 11.1929 38.8071 0 25 0C11.1929 0 0 11.1929 0 25C0 38.8071 11.1929 50 25 50Z" fill="url(#paint0_linear_546_6485)"/>
<path d="M30.311 11.1113H19.6998C14.9665 11.1113 11.1221 14.9558 11.1221 19.6891V30.3002C11.1221 35.0336 14.9665 38.878 19.6998 38.878H30.311C35.0443 38.878 38.8887 35.0336 38.8887 30.3002V19.6891C38.8887 14.9558 35.0443 11.1113 30.311 11.1113ZM35.7887 30.3113C35.7887 33.3335 33.3332 35.8002 30.2998 35.8002H19.6887C16.6665 35.8002 14.1998 33.3447 14.1998 30.3113V19.7002C14.1998 16.678 16.6554 14.2113 19.6887 14.2113H30.2998C33.3221 14.2113 35.7887 16.6669 35.7887 19.7002V30.3113Z" fill="white"/>
<path d="M24.9999 17.8999C21.0888 17.8999 17.8999 21.0888 17.8999 24.9999C17.8999 28.911 21.0888 32.0999 24.9999 32.0999C28.911 32.0999 32.0999 28.911 32.0999 24.9999C32.0999 21.0888 28.911 17.8999 24.9999 17.8999ZM24.9999 29.311C22.6221 29.311 20.6888 27.3777 20.6888 24.9999C20.6888 22.6221 22.6221 20.6888 24.9999 20.6888C27.3777 20.6888 29.311 22.6221 29.311 24.9999C29.311 27.3777 27.3777 29.311 24.9999 29.311Z" fill="white"/>
<path d="M32.6407 18.6783C33.2948 18.5722 33.7391 17.956 33.6331 17.3019C33.527 16.6477 32.9108 16.2034 32.2567 16.3095C31.6025 16.4155 31.1582 17.0317 31.2643 17.6859C31.3703 18.34 31.9865 18.7843 32.6407 18.6783Z" fill="white"/>
<defs>
<linearGradient id="paint0_linear_546_6485" x1="5.96433" y1="44.0357" x2="41.4921" y2="8.50789" gradientUnits="userSpaceOnUse">
<stop stop-color="#FEE411"/>
<stop offset="0.0518459" stop-color="#FEDB16"/>
<stop offset="0.1381" stop-color="#FEC125"/>
<stop offset="0.2481" stop-color="#FE983D"/>
<stop offset="0.3762" stop-color="#FE5F5E"/>
<stop offset="0.5" stop-color="#FE2181"/>
<stop offset="1" stop-color="#9000DC"/>
</linearGradient>
</defs>
</svg>
