<?xml version="1.0" encoding="UTF-8"?>
<!DOCTYPE svg PUBLIC "-//W3C//DTD SVG 1.1//EN" "http://www.w3.org/Graphics/SVG/1.1/DTD/svg11.dtd">
<svg xmlns="http://www.w3.org/2000/svg" version="1.1" width="46px" height="46px" style="shape-rendering:geometricPrecision; text-rendering:geometricPrecision; image-rendering:optimizeQuality; fill-rule:evenodd; clip-rule:evenodd" xmlns:xlink="http://www.w3.org/1999/xlink">
<g><path style="opacity:0.911" fill="#f4f5f4" d="M 17.5,2.5 C 20.5,2.5 23.5,2.5 26.5,2.5C 26.5,7.83333 26.5,13.1667 26.5,18.5C 31.5,18.5 36.5,18.5 41.5,18.5C 41.5,21.1667 41.5,23.8333 41.5,26.5C 36.5,26.5 31.5,26.5 26.5,26.5C 26.5,31.8333 26.5,37.1667 26.5,42.5C 23.5,42.5 20.5,42.5 17.5,42.5C 17.5,37.1667 17.5,31.8333 17.5,26.5C 12.5,26.5 7.5,26.5 2.5,26.5C 2.5,23.8333 2.5,21.1667 2.5,18.5C 7.5,18.5 12.5,18.5 17.5,18.5C 17.5,13.1667 17.5,7.83333 17.5,2.5 Z"/></g>
</svg>
